# xmcd CD database file
#
# Track frame offsets:
#	150
#	17726
#	33670
#	51154
#	65634
#	80295
#	98532
#	116392
#	135003
#	153751
#	169647
#	183674
#	194312
#	210900
#	226020
#
# Disc length: 3238 seconds
#
# Revision: 1
# Processed by: cddbd v1.5.2PL0 Copyright (c) Steve Scherf et al.
# Submitted via: CDex 1.51
#
DISCID=ae0ca40f
DTITLE=The Bosshoss - Liberty of Action
DYEAR=2011
DGENRE=Country
TTITLE0=Liberty Of Action
TTITLE1=Don't Gimme That
TTITLE2=Live It Up
TTITLE3=The Answer
TTITLE4=I Keep On Dancing
TTITLE5=My Way
TTITLE6=Still Crazy 'bout Elvis
TTITLE7=Hayday
TTITLE8=My Country
TTITLE9=Sex On Legs
TTITLE10=Riding High, Singing Low
TTITLE11=Money (That's What I Want)
TTITLE12=Run Run Devil
TTITLE13=Killers
TTITLE14=L.O.V.E.
EXTD=YEAR: 2011
EXTT0=
EXTT1=
EXTT2=
EXTT3=
EXTT4=
EXTT5=
EXTT6=
EXTT7=
EXTT8=
EXTT9=
EXTT10=
EXTT11=
EXTT12=
EXTT13=
EXTT14=
PLAYORDER=
